<svg width="88" height="78" viewBox="0 0 88 78" fill="none" xmlns="http://www.w3.org/2000/svg">
<path fill-rule="evenodd" clip-rule="evenodd" d="M71.5392 40.1881C71.6779 39.1356 71.7493 38.0752 71.7493 37.0168C71.7493 29.5763 68.8812 22.6272 63.6764 17.4541C58.4934 12.3028 51.5602 9.46648 44.1513 9.46648C28.8797 9.46648 16.4543 21.9811 16.4543 37.3637C16.4543 38.3151 16.4999 39.2585 16.593 40.1881H18.3868C18.2877 39.2645 18.2362 38.323 18.2362 37.3637C18.2362 23.0514 29.839 11.4485 44.1513 11.4485C58.4636 11.4485 69.9674 22.7045 69.9674 37.0168C69.9674 38.0832 69.8901 39.1436 69.7414 40.1881H71.5392ZM51.649 67.1708H53.6715V63.5306H56.5702V62.7889H48.7503V63.5306H51.649V67.1708ZM42.9865 67.1708H45.009V62.7552H42.9865V67.1708ZM32.6388 65.2494H36.3466V67.1708H38.3689V62.7552H36.3466V64.5079H32.6388V62.7552H30.6166V67.1708H32.6388V65.2494ZM15.5279 47.3567H16.3481V46.1372H15.5279V47.3567ZM15.5279 45.6007H16.3481V44.3811H15.5279V45.6007ZM15.5279 43.8448H16.3481V42.6252H15.5279V43.8448ZM16.7375 49.1128H17.5577V47.8933H16.7375V49.1128ZM14.3181 47.3567H15.1382V46.1372H14.3181V47.3567ZM15.5279 49.1128H16.3481V47.8933H15.5279V49.1128ZM14.3181 43.8448H15.1382V42.6252H14.3181V43.8448ZM14.3181 45.6007H15.1382V44.3811H14.3181V45.6007ZM17.9474 47.3567H18.7675V46.1372H17.9474V47.3567ZM17.9474 49.1128H18.7675V47.8933H17.9474V49.1128ZM17.9474 45.6007H18.7675V44.3811H17.9474V45.6007ZM17.9474 43.8448H18.7675V42.6252H17.9474V43.8448ZM19.1574 49.1128H19.9774V47.8933H19.1574V49.1128ZM16.7375 47.3567H17.5577V46.1372H16.7375V47.3567ZM16.7375 45.6007H17.5577V44.3811H16.7375V45.6007ZM14.3181 49.1128H15.1382V47.8933H14.3181V49.1128ZM19.1574 47.3567H19.9774V46.1372H19.1574V47.3567ZM16.7375 43.8448H17.5577V42.6252H16.7375V43.8448ZM6.68998 49.1128H7.51015V47.8933H6.68998V49.1128ZM8.28532 47.3567H9.10549V46.1372H8.28532V47.3567ZM8.28532 45.6007H9.10549V44.3811H8.28532V45.6007ZM9.99919 49.1128H10.8194V47.8933H9.99919V49.1128ZM8.28532 43.8448H9.10549V42.6252H8.28532V43.8448ZM8.28532 49.1128H9.10549V47.8933H8.28532V49.1128ZM9.99919 47.3567H10.8194V46.1372H9.99919V47.3567ZM6.68998 47.3567H7.51015V46.1372H6.68998V47.3567ZM6.68998 45.6007H7.51015V44.3811H6.68998V45.6007ZM6.68998 43.8448H7.51015V42.6252H6.68998V43.8448ZM11.2503 45.6007H12.0702V44.3811H11.2503V45.6007ZM12.8274 49.1128H13.6473V47.8933H12.8274V49.1128ZM9.99919 45.6007H10.8194V44.3811H9.99919V45.6007ZM11.2503 43.8448H12.0702V42.6252H11.2503V43.8448ZM12.8274 45.6007H13.6473V44.3811H12.8274V45.6007ZM12.8274 47.3567H13.6473V46.1372H12.8274V47.3567ZM9.99919 43.8448H10.8194V42.6252H9.99919V43.8448ZM11.2503 49.1128H12.0702V47.8933H11.2503V49.1128ZM11.2503 47.3567H12.0702V46.1372H11.2503V47.3567ZM19.1574 45.6007H19.9774V44.3811H19.1574V45.6007ZM12.8274 43.8448H13.6473V42.6252H12.8274V43.8448ZM58.9978 38.659C58.7617 38.659 58.5703 38.8502 58.5703 39.0863V40.2036H59.4251V39.0863C59.4251 38.8502 59.2339 38.659 58.9978 38.659ZM58.5703 42.036H59.4251V40.8612H58.5703V42.036ZM58.5703 43.8684H59.4251V42.6936H58.5703V43.8684ZM58.5703 45.6718H59.4251V44.4281H58.5703V45.6718ZM59.9329 49.1733H60.7878V47.9819H59.9329V49.1733ZM59.9329 43.8684H60.7878V42.6936H59.9329V43.8684ZM59.9329 47.4226H60.7878V46.2311H59.9329V47.4226ZM59.9329 42.036H60.7878V40.8612H59.9329V42.036ZM59.9329 45.6718H60.7878V44.4281H59.9329V45.6718ZM58.5703 47.4226H59.4251V46.2311H58.5703V47.4226ZM57.2076 47.4226H58.0625V46.2311H57.2076V47.4226ZM57.2076 49.1733H58.0625V47.9819H57.2076V49.1733ZM55.845 42.036H56.6998V40.8612H55.845V42.036ZM56.2725 38.659C56.0364 38.659 55.845 38.8502 55.845 39.0863V40.2036H56.6998V39.0863C56.6998 38.8502 56.5085 38.659 56.2725 38.659ZM57.6351 38.659C57.3991 38.659 57.2076 38.8502 57.2076 39.0863V40.2036H58.0625V39.0863C58.0625 38.8502 57.8712 38.659 57.6351 38.659ZM58.5703 49.1733H59.4251V47.9819H58.5703V49.1733ZM57.2076 43.8684H58.0625V42.6936H57.2076V43.8684ZM57.2076 42.036H58.0625V40.8612H57.2076V42.036ZM57.2076 45.6718H58.0625V44.4281H57.2076V45.6718ZM44.7519 29.3105H45.5574V28.1809H44.7519V29.3105ZM42.31 32.277H43.1155V31.2893H42.31V32.277ZM42.31 33.7076H43.1155V32.72H42.31V33.7076ZM44.7519 27.6743H45.5574V26.5447H44.7519V27.6743ZM43.5309 27.6743H44.3364V26.5447H43.5309V27.6743ZM60.3604 38.659C60.1244 38.659 59.9329 38.8502 59.9329 39.0863V40.2036H60.7878V39.0863C60.7878 38.8502 60.5965 38.659 60.3604 38.659ZM44.7519 32.277H45.5574V31.2893H44.7519V32.277ZM44.7519 33.7076H45.5574V32.72H44.7519V33.7076ZM43.5309 32.277H44.3364V31.2893H43.5309V32.277ZM43.5309 33.7076H44.3364V32.72H43.5309V33.7076ZM19.1574 43.8448H19.9774V42.6252H19.1574V43.8448ZM43.5309 29.3105H44.3364V28.1809H43.5309V29.3105ZM61.2956 47.4226H62.1504V46.2311H61.2956V47.4226ZM61.2956 49.1733H62.1504V47.9819H61.2956V49.1733ZM61.2956 43.8684H62.1504V42.6936H61.2956V43.8684ZM61.2956 45.6718H62.1504V44.4281H61.2956V45.6718ZM42.31 27.6743H43.1155V26.5447H42.31V27.6743ZM61.2956 42.036H62.1504V40.8612H61.2956V42.036ZM61.7231 38.659C61.487 38.659 61.2956 38.8502 61.2956 39.0863V40.2036H62.1504V39.0863C62.1504 38.8502 61.9592 38.659 61.7231 38.659ZM42.31 29.3105H43.1155V28.1809H42.31V29.3105ZM71.6517 49.1128H72.4719V47.8933H71.6517V49.1128ZM78.8943 49.1128H79.7145V47.8933H78.8943V49.1128ZM77.1804 43.8448H78.0006V42.6252H77.1804V43.8448ZM77.1804 49.1128H78.0006V47.8933H77.1804V49.1128ZM77.1804 47.3567H78.0006V46.1372H77.1804V47.3567ZM77.1804 45.6009H78.0006V44.3813H77.1804V45.6009ZM80.4899 47.3567H81.31V46.1372H80.4899V47.3567ZM78.8943 47.3567H79.7145V46.1372H78.8943V47.3567ZM78.8943 45.6009H79.7145V44.3813H78.8943V45.6009ZM78.8943 43.8448H79.7145V42.6252H78.8943V43.8448ZM80.4899 49.1128H81.31V47.8933H80.4899V49.1128ZM74.3525 47.3567H75.1724V46.1372H74.3525V47.3567ZM75.9296 43.8448H76.7497V42.6252H75.9296V43.8448ZM74.3525 49.1128H75.1724V47.8933H74.3525V49.1128ZM72.8616 43.8448H73.6817V42.6252H72.8616V43.8448ZM74.3525 45.6009H75.1724V44.3813H74.3525V45.6009ZM75.9296 45.6009H76.7497V44.3813H75.9296V45.6009ZM75.9296 47.3567H76.7497V46.1372H75.9296V47.3567ZM5.48014 43.8448H6.30031V42.6252H5.48014V43.8448ZM74.3525 43.8448H75.1724V42.6252H74.3525V43.8448ZM82.9093 43.8448H83.7295V42.6252H82.9093V43.8448ZM84.119 43.8448H84.9391V42.6252H84.119V43.8448ZM84.119 47.3567H84.9391V46.1372H84.119V47.3567ZM85.3288 49.1128H86.149V47.8933H85.3288V49.1128ZM84.119 49.1128H84.9391V47.8933H84.119V49.1128ZM84.119 45.6009H84.9391V44.3813H84.119V45.6009ZM87.6377 42.2585H80.125V41.9977C80.125 41.9589 80.0934 41.9273 80.0546 41.9273H73.9392C73.9006 41.9273 73.869 41.9589 73.869 41.9977V42.3483H66.2935V41.9977H73.3607V41.5755H80.6466V41.9977H87.6377V42.2585ZM80.125 49.4601V42.3991H87.3104C87.3087 42.4054 87.3065 42.4118 87.3065 42.4187V49.4601H80.125ZM78.5015 42.0679H79.9842V49.4601H78.5015V42.0679ZM75.6285 42.0679H78.3609V49.4601H75.6285V42.0679ZM74.0096 42.0679H75.488V49.4601H74.0096V42.0679ZM67.6625 42.4889H73.8689V49.4601H67.6625V42.4889ZM66.5642 42.4889H67.5222V49.4601H66.5642V42.4889ZM87.6377 49.6006V50.1405H65.6043L65.9561 49.6006H87.6377ZM87.6377 50.821H65.9561L65.6043 50.281H87.6377V50.821ZM65.6763 48.7347C65.3923 48.5521 64.9909 48.5638 64.7217 48.762C64.5858 48.8623 64.3796 49.0944 64.4377 49.5304H64.1925V42.7087H66.4237V49.4601H66.0085C66.0299 49.1483 65.9123 48.8863 65.6763 48.7347ZM64.647 50.0702H51.4756C51.4466 49.9703 51.3584 49.8961 51.249 49.8961H51.1856V49.671H64.4904L64.647 50.0702ZM64.4149 50.7506H57.0409C56.9301 50.6933 56.7993 50.6592 56.658 50.6592C56.5708 50.6592 56.4895 50.6711 56.4122 50.6969C55.6662 50.4691 54.9007 50.3185 54.1255 50.2107H64.6438L64.4149 50.7506ZM56.658 51.452C56.3785 51.452 56.1526 51.3133 56.1526 51.1409C56.1526 50.9704 56.3785 50.8317 56.658 50.8317C56.9375 50.8317 57.1654 50.9704 57.1654 51.1409C57.1654 51.3133 56.9375 51.452 56.658 51.452ZM52.1778 50.8344C52.4301 50.9127 52.6095 51.0305 52.681 51.2059H50.303V50.8344H52.1778ZM52.908 51.3708C52.8584 51.4302 52.8307 51.4976 52.8307 51.571C52.8307 51.6604 52.8751 51.7424 52.9474 51.8092H51.1148V51.3464H52.8717L52.908 51.3708ZM53.4094 51.232C53.6255 51.232 53.8019 51.345 53.8019 51.4838C53.8019 51.6225 53.6255 51.7335 53.4094 51.7335C53.1934 51.7335 53.017 51.6225 53.017 51.4838C53.017 51.345 53.1934 51.232 53.4094 51.232ZM50.9743 51.8092H50.6332V51.3464H50.9743V51.8092ZM50.4925 51.8092H37.143V51.3464H50.4925V51.8092ZM37.0027 51.8092H34.9886C35.0609 51.7424 35.1053 51.6604 35.1053 51.571C35.1053 51.4976 35.0777 51.4302 35.0282 51.3708L35.0643 51.3464H37.0027V51.8092ZM34.5265 51.7335C34.3105 51.7335 34.1341 51.6225 34.1341 51.4838C34.1341 51.345 34.3105 51.232 34.5265 51.232C34.7428 51.232 34.919 51.345 34.919 51.4838C34.919 51.6225 34.7428 51.7335 34.5265 51.7335ZM35.7582 50.8344H37.8256V51.2059H35.2549C35.3265 51.0305 35.5059 50.9127 35.7582 50.8344ZM23.353 50.0702L23.5096 49.671H36.8257V49.8961H36.7603C36.6525 49.8961 36.5633 49.9703 36.534 50.0702H23.353ZM31.5238 50.6969C31.4465 50.6711 31.3654 50.6592 31.2782 50.6592C31.1369 50.6592 31.0058 50.6933 30.8952 50.7506H23.5851L23.356 50.2107H33.8104C33.0353 50.3185 32.2698 50.4691 31.5238 50.6969ZM31.2782 51.452C30.9985 51.452 30.7708 51.3133 30.7708 51.1409C30.7708 51.038 30.8544 50.9474 30.9817 50.8911H31.0243C31.0504 50.8911 31.0722 50.8763 31.0843 50.8552C31.144 50.8402 31.2094 50.8317 31.2782 50.8317C31.5574 50.8317 31.7834 50.9704 31.7834 51.1409C31.7834 51.3133 31.5574 51.452 31.2782 51.452ZM23.2781 48.762C23.0089 48.5638 22.6075 48.5521 22.3235 48.7347C22.0875 48.8863 21.9701 49.1483 21.9913 49.4601H21.5761V42.7087H23.8075V49.5304H23.5621C23.6202 49.0944 23.4142 48.8623 23.2781 48.762ZM22.3955 50.1405H0.362317V49.6006H22.0439L22.3955 50.1405ZM22.0439 50.821H0.362317V50.281H22.3955L22.0439 50.821ZM0.689354 42.3991H7.87484V49.4601H0.693318V42.4187C0.693318 42.4118 0.691336 42.4054 0.689354 42.3991ZM9.49833 49.4601H8.01557V42.0679H9.49833V49.4601ZM12.3713 49.4601H9.63886V42.0679H12.3713V49.4601ZM13.9902 49.4601H12.5118V42.0679H13.9902V49.4601ZM20.3373 49.4601H14.131V42.4889H20.3373V49.4601ZM21.4356 49.4601H20.4776V42.4889H21.4356V49.4601ZM0.362317 42.2585V41.9977H7.35337V41.5755H14.6391V41.9977H21.7065V42.3483H14.1308V41.9977C14.1308 41.9589 14.0994 41.9273 14.0606 41.9273H7.9452C7.90636 41.9273 7.87484 41.9589 7.87484 41.9977V42.2585H0.362317ZM23.948 38.4415H25.2141V38.4711H23.948V38.4415ZM25.2139 49.5304H23.9478V39.1374H25.2139V49.5304ZM23.948 38.6116H25.2141V38.9969H23.948V38.6116ZM23.29 37.8646H39.4107V38.301H23.9002L23.29 37.8646ZM39.8949 44.7032V44.9119L37.0608 44.9141L36.8481 44.8608V44.7032H39.8949ZM39.2159 34.0115H48.8783L48.4904 34.2701H39.5076L39.2159 34.0115ZM39.0159 33.8594V33.8482H42.0074C42.0462 33.8482 42.0775 33.8166 42.0775 33.7778V30.9746H45.889V33.7778C45.889 33.8166 45.9205 33.8482 45.9593 33.8482H49.0696V33.8709H39.0494C39.0387 33.865 39.0278 33.8594 39.0159 33.8594ZM41.2141 33.7076H39.6884V33.4373H41.2141V33.7076ZM41.3501 33.1866L41.2528 33.2967H39.6513L39.5605 33.1866H41.3501ZM41.5697 33.0874C41.5584 33.0623 41.5332 33.046 41.5057 33.046H40.6911V30.9746H41.937V33.7076H41.3547V33.3935L41.5584 33.1628C41.5767 33.1421 41.5812 33.1126 41.5697 33.0874ZM40.4917 30.8341V30.6063H47.5174V30.8341H45.9617C45.9609 30.8341 45.9625 30.8341 45.9617 30.8341C45.9609 30.8341 45.9578 30.8341 45.957 30.8341H42.0097C42.0089 30.8341 42.0105 30.8341 42.0097 30.8341C42.0089 30.8341 42.0058 30.8341 42.005 30.8341H40.4917ZM40.2186 30.2813H47.8443L47.6124 30.4658H40.4463L40.2186 30.2813ZM40.021 30.0896H47.9751V30.1407H40.0144L40.021 30.0896ZM40.4263 29.5755C40.3769 29.5755 40.3367 29.5352 40.3367 29.4857C40.3367 29.4363 40.3769 29.3961 40.4263 29.3961H41.8754C41.9247 29.3961 41.9651 29.4363 41.9651 29.4857C41.9651 29.5352 41.9247 29.5755 41.8754 29.5755H40.4263ZM41.5733 25.7117V25.7034H46.2792V25.7117C46.2792 25.8681 46.152 25.9955 45.9956 25.9955H41.8567C41.7003 25.9955 41.5733 25.8681 41.5733 25.7117ZM41.5344 25.5628L41.446 25.4641H46.4556L46.3672 25.5628H41.5344ZM42.8016 25.3236H41.9469V25.0758H42.8016V25.3236ZM41.715 24.9353C41.6827 24.9353 41.6565 24.9092 41.6565 24.8768C41.6565 24.8445 41.6827 24.8184 41.715 24.8184H42.9645C42.9968 24.8184 43.0229 24.8445 43.0229 24.8768C43.0229 24.9092 42.9968 24.9353 42.9645 24.9353H41.715ZM45.0849 25.3236H42.9423V25.1365H45.0849V25.3236ZM43.0751 24.2261H43.2911L43.5478 24.9958H43.5097L43.0751 24.2261ZM43.414 23.7354L43.2909 24.1138H43.0989L43.414 23.7354ZM43.3623 23.3126L43.2138 23.1604H44.736L44.6383 23.3126H43.3623ZM43.4037 22.8413H44.5981L44.7344 23.0478H43.2101L43.4037 22.8413ZM44.6571 22.6377L44.5872 22.7289H43.4051L43.3264 22.6377H44.6571ZM43.2039 22.5252C43.1411 22.5252 43.0899 22.474 43.0899 22.4114C43.0899 22.3486 43.1411 22.2974 43.2039 22.2974H44.7709C44.8337 22.2974 44.8849 22.3486 44.8849 22.4114C44.8849 22.474 44.8337 22.5252 44.7709 22.5252H43.2039ZM44.8361 24.1138H44.6807L44.478 23.6559H44.4982L44.8361 24.1138ZM44.3749 24.2261H44.5414L44.2124 24.9958H44.1541L44.3749 24.2261ZM43.965 24.2261H44.258L44.0374 24.9958H43.965V24.2261ZM44.2643 24.1138H43.965V23.6559H44.1212L44.2643 24.1138ZM44.2389 23.6559H44.3551L44.5578 24.1138H44.3818L44.2389 23.6559ZM43.4887 23.5435L43.4295 23.4252H44.5683L44.4952 23.5435H43.4887ZM43.6388 24.1138L43.7688 23.6559H43.8526V24.1138H43.6388ZM43.6316 24.2261H43.8526V24.9958H43.8102L43.6316 24.2261ZM43.4091 24.1138L43.5581 23.6559H43.6521L43.5222 24.1138H43.4091ZM43.5163 24.2261L43.6949 24.9958H43.6663L43.4096 24.2261H43.5163ZM44.5019 24.9958H44.3347L44.6635 24.2261H44.8595L44.5019 24.9958ZM45.971 25.3236H45.2256V25.0758H45.971V25.3236ZM45.0631 24.8184H46.2027C46.235 24.8184 46.2612 24.8445 46.2612 24.8768C46.2612 24.9092 46.235 24.9353 46.2027 24.9353H45.0631C45.0308 24.9353 45.0046 24.9092 45.0046 24.8768C45.0046 24.8445 45.0308 24.8184 45.0631 24.8184ZM46.0513 29.9491H41.873V29.8648H46.0513V29.9491ZM41.873 29.7243V29.716C42 29.716 42.1057 29.6127 42.1057 29.4857C42.1057 29.3588 42.0024 29.2556 41.8754 29.2556L41.873 26.136H45.9956C46.0146 26.136 46.0329 26.1327 46.0513 26.1303V29.2556C45.9243 29.2556 45.8188 29.3588 45.8188 29.4857C45.8188 29.6127 45.9221 29.716 46.0491 29.716L46.0513 29.7243H41.873ZM47.498 29.3961C47.5476 29.3961 47.5878 29.4363 47.5878 29.4857C47.5878 29.5352 47.5476 29.5755 47.498 29.5755H46.0491C45.9996 29.5755 45.9593 29.5352 45.9593 29.4857C45.9593 29.4363 45.9996 29.3961 46.0491 29.3961H47.498ZM46.374 33.161L46.5645 33.3921V33.7076H46.0295V30.9746H47.2606V33.046H46.4281C46.4009 33.046 46.3762 33.0617 46.3647 33.0863C46.353 33.1108 46.3565 33.14 46.374 33.161ZM48.2308 33.7076H46.705V33.4373H48.2308V33.7076ZM48.3665 33.1866L48.2694 33.2967H46.6677L46.5769 33.1866H48.3665ZM51.1856 46.7348C51.2827 46.7051 51.3541 46.6178 51.3541 46.5108C51.3541 46.4916 51.3473 46.4745 51.3432 46.4565V45.9695C51.3432 45.9523 51.3366 45.9356 51.3251 45.9227L51.2478 45.8367C51.2345 45.8219 51.2155 45.8133 51.1955 45.8133H51.0494V45.0758H51.2292C51.268 45.0758 51.2996 45.0443 51.2996 45.0056V44.6683C51.2996 44.6297 51.268 44.5981 51.2292 44.5981H48.582V38.4415H62.6453V49.5304H51.1856V46.7348ZM51.1142 46.6099H50.4007C50.3987 46.6099 50.3967 46.6079 50.3948 46.6079C50.3412 46.6059 50.2957 46.5643 50.2957 46.5108C50.2957 46.4553 50.3412 46.4097 50.3948 46.4097H51.1142C51.1539 46.4097 51.1866 46.4335 51.2026 46.467V46.5108C51.2026 46.5201 51.2046 46.529 51.208 46.5372C51.1963 46.5782 51.16 46.6099 51.1142 46.6099ZM51.249 50.2351H50.26C50.2065 50.2351 50.1609 50.1895 50.1609 50.136C50.1609 50.0805 50.2065 50.0349 50.26 50.0349H50.4661V46.7506H51.0449V50.0349H51.249C51.3045 50.0349 51.3481 50.0805 51.3481 50.136C51.3481 50.1895 51.3045 50.2351 51.249 50.2351ZM47.9059 45.9931H40.0356V44.4334H47.9059V45.9931ZM48.4414 44.1728V44.5981H48.0464V44.3631C48.0464 44.3244 48.0149 44.2929 47.9761 44.2929H39.9653C39.9264 44.2929 39.8949 44.3244 39.8949 44.3631V44.5627H39.5512V44.1728H48.4414ZM41.4879 44.0325H39.5512V34.6592H41.4879V44.0325ZM46.2283 44.0325H41.6284V34.6592H46.2283V44.0325ZM48.4414 34.5187H39.5512V34.4109H48.4414V34.5187ZM48.4414 44.0325H46.3686V34.6592H48.4414V44.0325ZM48.0464 44.7387H51.159V44.9353H48.0464V44.7387ZM51.1644 45.9539L51.1923 45.9852H48.0464V45.9539H51.1644ZM50.9089 45.8133H48.0464V45.0758H50.9089V45.8133ZM36.8951 46.269C36.8685 46.269 36.8437 46.2761 36.8196 46.2845V46.1435H39.9653C39.9777 46.1435 39.9888 46.1394 39.9992 46.1336H47.9761C47.9874 46.1336 47.9977 46.1303 48.0072 46.1257H51.2026V46.287C51.1751 46.2759 51.1455 46.269 51.1142 46.269H36.8951ZM49.2146 50.3758H49.7254V50.6939H49.2146V50.3758ZM47.5882 46.5108C47.5882 46.4553 47.6338 46.4097 47.6873 46.4097H48.4068C48.4623 46.4097 48.5059 46.4553 48.5059 46.5108C48.5059 46.5643 48.4623 46.6099 48.4068 46.6099H47.6932C47.6912 46.6099 47.6893 46.6079 47.6873 46.6079C47.6338 46.6059 47.5882 46.5643 47.5882 46.5108ZM47.7586 50.0349V46.7506H48.3374V50.0349H48.5415C48.597 50.0349 48.6406 50.0805 48.6406 50.136C48.6406 50.1895 48.597 50.2351 48.5415 50.2351H47.5525C47.499 50.2351 47.4534 50.1895 47.4534 50.136C47.4534 50.0805 47.499 50.0349 47.5525 50.0349H47.7586ZM44.8787 46.5108C44.8787 46.4553 44.9243 46.4097 44.9778 46.4097H45.6973C45.7528 46.4097 45.7964 46.4553 45.7964 46.5108C45.7964 46.5643 45.7528 46.6099 45.6973 46.6099H44.9838C44.9818 46.6099 44.9798 46.6079 44.9778 46.6079C44.9243 46.6059 44.8787 46.5643 44.8787 46.5108ZM45.0492 50.0349V46.7506H45.6279V50.0349H45.8321C45.8876 50.0349 45.9312 50.0805 45.9312 50.136C45.9312 50.1895 45.8876 50.2351 45.8321 50.2351H44.8431C44.7895 50.2351 44.744 50.1895 44.744 50.136C44.744 50.0805 44.7895 50.0349 44.8431 50.0349H45.0492ZM42.1713 46.5108C42.1713 46.4553 42.2169 46.4097 42.2704 46.4097H42.9899C43.0453 46.4097 43.089 46.4553 43.089 46.5108C43.089 46.5643 43.0453 46.6099 42.9899 46.6099H42.2763C42.2743 46.6099 42.2724 46.6079 42.2704 46.6079C42.2169 46.6059 42.1713 46.5643 42.1713 46.5108ZM42.3417 50.0349V46.7506H42.9205V50.0349H43.1246C43.1801 50.0349 43.2237 50.0805 43.2237 50.136C43.2237 50.1895 43.1801 50.2351 43.1246 50.2351H42.1356C42.0821 50.2351 42.0365 50.1895 42.0365 50.136C42.0365 50.0805 42.0821 50.0349 42.1356 50.0349H42.3417ZM49.0741 50.6939H38.4212V50.3758H49.0741V50.6939ZM39.4638 46.5108C39.4638 46.4553 39.5094 46.4097 39.5629 46.4097H40.2824C40.3379 46.4097 40.3815 46.4553 40.3815 46.5108C40.3815 46.5643 40.3379 46.6099 40.2824 46.6099H39.5688C39.5669 46.6099 39.5649 46.6079 39.5629 46.6079C39.5094 46.6059 39.4638 46.5643 39.4638 46.5108ZM39.6343 50.0349V46.7506H40.213V50.0349H40.4172C40.4727 50.0349 40.5163 50.0805 40.5163 50.136C40.5163 50.1895 40.4727 50.2351 40.4172 50.2351H39.4281C39.3746 50.2351 39.329 50.1895 39.329 50.136C39.329 50.0805 39.3746 50.0349 39.4281 50.0349H39.6343ZM37.9662 50.8344H49.8414V51.2061H37.9662V50.8344ZM36.7006 50.3635C36.7203 50.3689 36.7393 50.3758 36.7603 50.3758H38.2807V50.6939H36.1084C36.2656 50.5447 36.4678 50.4394 36.7006 50.3635ZM36.9664 50.0349V46.7506H37.5452V50.0349H37.7493C37.8048 50.0349 37.8484 50.0805 37.8484 50.136C37.8484 50.1895 37.8048 50.2351 37.7493 50.2351H36.7603C36.7068 50.2351 36.6612 50.1895 36.6612 50.136C36.6612 50.0805 36.7068 50.0349 36.7603 50.0349H36.9664ZM36.796 46.5108C36.796 46.4553 36.8416 46.4097 36.8951 46.4097H37.6146C37.6701 46.4097 37.7137 46.4553 37.7137 46.5108C37.7137 46.5643 37.6701 46.6099 37.6146 46.6099H36.901C36.899 46.6099 36.8971 46.6079 36.8951 46.6079C36.8416 46.6059 36.796 46.5643 36.796 46.5108ZM37.1141 45.0524H39.8949V45.8026H37.1141V45.0524ZM39.8949 45.9432V46.003H36.8459L36.929 45.9432H39.8949ZM36.7607 44.9838L36.9759 45.036C36.9752 45.0399 36.9736 45.0435 36.9736 45.0477V45.8026H36.9064C36.8915 45.8026 36.8772 45.8072 36.8652 45.8159L36.7082 45.9293C36.6899 45.9424 36.679 45.9636 36.679 45.9862V46.0141C36.6586 46.0264 36.6442 46.0478 36.6442 46.0734C36.6442 46.0989 36.6586 46.1203 36.679 46.1326V46.4046C36.679 46.4062 36.6798 46.4072 36.68 46.4087C36.665 46.4401 36.6553 46.4739 36.6553 46.5108C36.6553 46.6178 36.7286 46.7051 36.8257 46.7348V49.5304H25.3545V38.4415H39.4107V44.5627H36.7777C36.7389 44.5627 36.7076 44.5942 36.7076 44.633V44.9157C36.7076 44.948 36.7296 44.9759 36.7607 44.9838ZM50.1625 51.2059H49.9819V50.8342H50.1625V51.2059ZM49.8657 50.6939V50.3758H51.249C51.2538 50.3758 51.2579 50.3732 51.2627 50.373C51.4841 50.4481 51.6767 50.5506 51.8276 50.6939H49.8657ZM62.7859 38.4415H64.052V38.4711H62.7859V38.4415ZM64.052 49.5304H62.7859V39.1374H64.052V49.5304ZM62.7859 38.6116H64.052V38.9969H62.7859V38.6116ZM64.7098 37.8646L64.0996 38.301H48.582V37.8646H64.7098ZM85.017 40.9611H80.8488L77.1027 39.5875L73.5866 40.9433H69.2776L65.9181 41.6112V41.9977H66.153V42.4187H64.1925V38.4415C64.1925 38.431 64.1898 38.4211 64.1856 38.4122L64.8714 37.9216C64.8908 37.908 64.8973 37.8866 64.8971 37.8646H64.9641V37.5643L59.2578 36.7261H48.582V34.3781L49.1318 34.0115H49.1397C49.1786 34.0115 49.2101 33.9802 49.2101 33.9413V33.7778C49.2101 33.7389 49.1786 33.7076 49.1397 33.7076H48.3713V33.3935L48.5748 33.1628C48.5931 33.1421 48.5976 33.1126 48.5861 33.0874C48.5748 33.0623 48.5499 33.046 48.5223 33.046H47.4011V30.9746H47.5878C47.6266 30.9746 47.658 30.9431 47.658 30.9042V30.599C47.6657 30.5962 47.6742 30.596 47.6807 30.5911L48.089 30.266C48.0882 30.2666 48.0896 30.2654 48.089 30.266C48.1013 30.2553 48.1105 30.2389 48.1134 30.222C48.1136 30.22 48.1142 30.2186 48.1144 30.2167C48.1146 30.2149 48.1156 30.2131 48.1156 30.2111V30.0194C48.1156 29.9806 48.0841 29.9491 48.0452 29.9491H46.1918V29.716H47.498C47.625 29.716 47.7283 29.6127 47.7283 29.4857C47.7283 29.3588 47.625 29.2556 47.498 29.2556H46.1918V26.0855C46.3266 26.0143 46.4198 25.8744 46.4198 25.7117V25.6988C46.4317 25.695 46.4426 25.6895 46.4511 25.68L46.665 25.4407C46.6836 25.4199 46.6881 25.3904 46.6768 25.3652C46.6655 25.3398 46.6404 25.3236 46.6126 25.3236H46.0957V25.0758H46.2027C46.3125 25.0758 46.4017 24.9867 46.4017 24.8768C46.4017 24.767 46.3125 24.6778 46.2027 24.6778H46.0444L46.0307 24.6285C46.0783 24.6132 46.1258 24.5894 46.1718 24.5452V23.8725C46.0818 23.9677 45.9798 24.0305 45.8676 24.0577L45.8438 23.9762H45.7742V24.6778H45.597V23.9762H45.5273L45.5037 24.0577C45.3915 24.0305 45.2896 23.9677 45.1994 23.8725V24.5452C45.2452 24.5894 45.293 24.6132 45.3405 24.6285L45.3269 24.6778H45.0631C44.9533 24.6778 44.8641 24.767 44.8641 24.8768C44.8641 24.9222 44.8819 24.9623 44.9077 24.9958H44.6258L44.9985 24.1936C44.9981 24.1946 44.9988 24.1926 44.9985 24.1936C45.003 24.1823 45.003 24.1677 45 24.1562C44.999 24.1526 44.9981 24.1498 44.9965 24.1465C44.9949 24.1433 44.9949 24.1395 44.9927 24.1366L44.5943 23.5968L44.7166 23.399L44.8861 23.1344C44.8857 23.135 44.8865 23.1338 44.8861 23.1344C44.8865 23.1336 44.8879 23.1315 44.8883 23.1307C44.8942 23.1198 44.8948 23.1077 44.893 23.0958C44.8926 23.0926 44.8912 23.0902 44.8902 23.0873C44.8888 23.0825 44.8886 23.0773 44.8857 23.0732L44.691 22.7781L44.8038 22.631C44.9124 22.6143 44.9973 22.5244 44.9973 22.4114C44.9973 22.2865 44.8958 22.185 44.7709 22.185H44.2659L44.1698 16.2934C44.6558 16.2124 45.0274 15.7926 45.0274 15.2838C45.0274 15.1589 45.0056 15.04 44.962 14.929C44.964 14.9627 44.9659 14.9944 44.9659 15.0281C44.9659 15.5593 44.5339 15.9933 44.0007 15.9933C43.4675 15.9933 43.0354 15.5593 43.0354 15.0281C43.0354 14.9944 43.0374 14.9627 43.0394 14.929C42.9958 15.04 42.974 15.1589 42.974 15.2838C42.974 15.7995 43.3559 16.2225 43.8514 16.2954L43.707 22.185H43.2039C43.079 22.185 42.9774 22.2865 42.9774 22.4114C42.9774 22.525 43.0634 22.6155 43.1726 22.6314L43.3038 22.7836L43.0394 23.0657C43.0307 23.0754 43.0267 23.0875 43.0259 23.0999C43.0255 23.1037 43.0267 23.1065 43.0269 23.1101C43.0275 23.1156 43.0267 23.1214 43.0289 23.1265C43.0309 23.1309 43.0348 23.1332 43.0376 23.1368C43.0392 23.1388 43.0386 23.1416 43.0402 23.1434L43.2921 23.402L43.3872 23.5921L42.9355 24.134C42.9274 24.1437 42.9239 24.1556 42.9235 24.1677C42.9235 24.1667 42.9235 24.1687 42.9235 24.1677C42.9235 24.1702 42.925 24.1744 42.9254 24.177C42.9264 24.1839 42.9262 24.1913 42.9298 24.1976L43.3807 24.9958H43.1199C43.1456 24.9623 43.1635 24.9222 43.1635 24.8768C43.1635 24.767 43.0741 24.6778 42.9645 24.6778H42.619L42.6055 24.6285C42.6531 24.6132 42.7007 24.5894 42.7465 24.5452V23.8725C42.6565 23.9677 42.5546 24.0305 42.4424 24.0577L42.4186 23.9762H42.3491V24.6778H42.1719V23.9762H42.1021L42.0783 24.0577C41.9661 24.0305 41.8643 23.9677 41.7743 23.8725V24.5452C41.8201 24.5894 41.8676 24.6132 41.9154 24.6285L41.9017 24.6778H41.715C41.6054 24.6778 41.516 24.767 41.516 24.8768C41.516 24.9867 41.6054 25.0758 41.715 25.0758H41.822V25.3236H41.2891C41.2613 25.3236 41.2361 25.3398 41.225 25.3652C41.2137 25.3904 41.2181 25.4199 41.2367 25.4407L41.4328 25.6599V25.7117C41.4328 25.9022 41.5596 26.0617 41.7324 26.1152V29.2556H40.4263C40.2994 29.2556 40.1962 29.3588 40.1962 29.4857C40.1962 29.6127 40.2994 29.716 40.4263 29.716H41.7324V29.9491H39.9593C39.924 29.9491 39.8941 29.9754 39.8895 30.0103L39.8648 30.202C39.8624 30.222 39.8683 30.2422 39.8818 30.2573C39.8951 30.2725 39.9143 30.2813 39.9345 30.2813H39.9952L40.3512 30.5695V30.9042C40.3512 30.9431 40.3827 30.9746 40.4213 30.9746H40.5506V33.046H39.4117C39.3845 33.046 39.3597 33.0617 39.3481 33.0863C39.3366 33.1108 39.3401 33.14 39.3574 33.161L39.5478 33.3921V33.7076H38.9455C38.9067 33.7076 38.8753 33.7389 38.8753 33.7778V33.9413C38.8753 33.9802 38.9067 34.0115 38.9455 34.0115H39.0042L39.4107 34.372V36.7261H28.7422L23.0359 37.5643V37.8646H23.1027C23.1027 37.8866 23.1092 37.908 23.1284 37.9216L23.8142 38.4122C23.81 38.4211 23.8075 38.431 23.8075 38.4415V42.4187H21.847V41.9977H22.0819V41.6112L18.7222 40.9433H14.4134L10.8973 39.5875L7.1512 40.9611H2.98277L0 41.6112V41.9977H0.22179V42.3287C0.22179 42.3676 0.253107 42.3991 0.291954 42.3991H0.556755C0.554971 42.4054 0.552791 42.4118 0.552791 42.4187V49.4601H0.291954C0.253107 49.4601 0.22179 49.4916 0.22179 49.5304V50.8911C0.22179 50.93 0.253107 50.9613 0.291954 50.9613H22.0819C22.1055 50.9613 22.1277 50.9494 22.1408 50.9294L22.584 50.2491C22.5848 50.2479 22.5844 50.2464 22.5851 50.2452C22.5911 50.2349 22.5955 50.2236 22.5955 50.2107C22.5955 50.198 22.5911 50.1867 22.5851 50.1764C22.5844 50.1752 22.5848 50.1736 22.584 50.1724L22.1408 49.492C22.1372 49.487 22.1321 49.4839 22.1275 49.4799C22.0997 49.2054 22.1925 48.9838 22.3939 48.8544C22.6339 48.6998 22.9734 48.7091 23.2006 48.8768C23.394 49.0195 23.4723 49.2547 23.4261 49.5414C23.413 49.5491 23.4019 49.5602 23.3962 49.575L23.1845 50.1148C23.1843 50.1153 23.1847 50.1144 23.1845 50.1148C23.1817 50.1223 23.1796 50.132 23.1796 50.1405C23.1796 50.1504 23.1817 50.1597 23.1853 50.1683L23.4739 50.8483C23.485 50.8743 23.5104 50.8911 23.5385 50.8911H30.7103C30.6235 50.9855 30.5704 51.1012 30.5704 51.2281C30.5704 51.5432 30.8875 51.7989 31.2782 51.7989C31.6667 51.7989 31.9836 51.5432 31.9836 51.2281V51.2182C33.2798 50.5443 34.6357 50.3778 36.0071 50.3282V50.4947C35.3273 50.6374 34.5503 50.8971 34.1797 51.2499C34.039 51.3232 33.9478 51.4401 33.9478 51.571C33.9478 51.791 34.2074 51.9713 34.5265 51.9713C34.5892 51.9713 34.6484 51.9626 34.7049 51.9497H53.2192C53.2213 51.9497 53.2231 51.9487 53.2253 51.9485C53.2836 51.9622 53.3446 51.9713 53.4094 51.9713C53.7285 51.9713 53.9882 51.791 53.9882 51.571C53.9882 51.4401 53.897 51.3232 53.7563 51.2499C53.3857 50.8971 52.6087 50.6374 51.9289 50.4947V50.3282C53.3004 50.3778 54.6561 50.5443 55.9524 51.2182V51.2281C55.9524 51.5432 56.2695 51.7989 56.658 51.7989C57.0485 51.7989 57.3656 51.5432 57.3656 51.2281C57.3656 51.1012 57.3125 50.9855 57.2257 50.8911H64.4613C64.4894 50.8911 64.515 50.8743 64.5259 50.8483L64.8145 50.1683C64.8183 50.1597 64.8202 50.1504 64.8202 50.1405C64.8202 50.132 64.8183 50.1239 64.8155 50.1163C64.8153 50.1159 64.8157 50.1169 64.8155 50.1163L64.6036 49.575C64.5979 49.5602 64.5868 49.5491 64.5737 49.5414C64.5275 49.2547 64.6058 49.0195 64.7994 48.8768C65.0266 48.7091 65.3659 48.6998 65.6059 48.8544C65.8075 48.9838 65.9003 49.2054 65.8723 49.4799C65.8679 49.4839 65.8626 49.487 65.8592 49.492L65.4158 50.1724C65.4152 50.1736 65.4154 50.1752 65.4148 50.1764C65.4087 50.1867 65.4045 50.198 65.4045 50.2107C65.4045 50.2236 65.4087 50.2349 65.4148 50.2452C65.4154 50.2464 65.4152 50.2479 65.4158 50.2491L65.8592 50.9294C65.8721 50.9494 65.8943 50.9613 65.9181 50.9613H87.7078C87.7467 50.9613 87.7782 50.93 87.7782 50.8911V49.5304C87.7782 49.4916 87.7467 49.4601 87.7078 49.4601H87.447V42.4187C87.447 42.4118 87.445 42.4054 87.443 42.3991H87.7078C87.7467 42.3991 87.7782 42.3676 87.7782 42.3287V41.9977H88V41.6112L85.017 40.9611ZM85.3288 47.3567H86.149V46.1372H85.3288V47.3567ZM85.3288 45.6009H86.149V44.3813H85.3288V45.6009ZM85.3288 43.8448H86.149V42.6252H85.3288V43.8448ZM81.6995 45.6009H82.5197V44.3813H81.6995V45.6009ZM72.8616 45.6009H73.6817V44.3813H72.8616V45.6009ZM80.4899 45.6009H81.31V44.3813H80.4899V45.6009ZM80.4899 43.8448H81.31V42.6252H80.4899V43.8448ZM81.6995 49.1128H82.5197V47.8933H81.6995V49.1128ZM81.6995 47.3567H82.5197V46.1372H81.6995V47.3567ZM82.9093 45.6009H83.7295V44.3813H82.9093V45.6009ZM81.6995 43.8448H82.5197V42.6252H81.6995V43.8448ZM82.9093 49.1128H83.7295V47.8933H82.9093V49.1128ZM82.9093 47.3567H83.7295V46.1372H82.9093V47.3567ZM75.9296 49.1128H76.7497V47.8933H75.9296V49.1128ZM1.85103 45.6007H2.6712V44.3811H1.85103V45.6007ZM3.06067 49.1128H3.88083V47.8933H3.06067V49.1128ZM3.06067 47.3567H3.88083V46.1372H3.06067V47.3567ZM1.85103 43.8448H2.6712V42.6252H1.85103V43.8448ZM1.85103 47.3567H2.6712V46.1372H1.85103V47.3567ZM22.3501 44.2937H23.17V43.0742H22.3501V44.2937ZM1.85103 49.1128H2.6712V47.8933H1.85103V49.1128ZM22.3501 47.6552H23.17V46.4357H22.3501V47.6552ZM22.3501 45.9745H23.17V44.7549H22.3501V45.9745ZM3.06067 45.6007H3.88083V44.3811H3.06067V45.6007ZM5.48014 49.1128H6.30031V47.8933H5.48014V49.1128ZM5.48014 47.3567H6.30031V46.1372H5.48014V47.3567ZM5.48014 45.6007H6.30031V44.3811H5.48014V45.6007ZM64.8298 47.6552H65.6497V46.4357H64.8298V47.6552ZM4.2705 43.8448H5.09067V42.6252H4.2705V43.8448ZM4.2705 45.6007H5.09067V44.3811H4.2705V45.6007ZM3.06067 43.8448H3.88083V42.6252H3.06067V43.8448ZM4.2705 49.1128H5.09067V47.8933H4.2705V49.1128ZM4.2705 47.3567H5.09067V46.1372H4.2705V47.3567ZM72.8616 49.1128H73.6817V47.8933H72.8616V49.1128ZM70.4421 43.8448H71.2623V42.6252H70.4421V43.8448ZM70.4421 47.3567H71.2623V46.1372H70.4421V47.3567ZM70.4421 45.6009H71.2623V44.3813H70.4421V45.6009ZM55.845 43.8684H56.6998V42.6936H55.845V43.8684ZM72.8616 47.3567H73.6817V46.1372H72.8616V47.3567ZM71.6517 47.3567H72.4719V46.1372H71.6517V47.3567ZM70.4421 49.1128H71.2623V47.8933H70.4421V49.1128ZM64.8298 45.9745H65.6497V44.7549H64.8298V45.9745ZM71.6517 45.6009H72.4719V44.3813H71.6517V45.6009ZM71.6517 43.8448H72.4719V42.6252H71.6517V43.8448ZM68.0226 47.3567H68.8428V46.1372H68.0226V47.3567ZM68.0226 45.6009H68.8428V44.3813H68.0226V45.6009ZM68.0226 49.1128H68.8428V47.8933H68.0226V49.1128ZM64.8298 44.2937H65.6497V43.0742H64.8298V44.2937ZM69.2323 49.1128H70.0524V47.8933H69.2323V49.1128ZM69.2323 45.6009H70.0524V44.3813H69.2323V45.6009ZM68.0226 43.8448H68.8428V42.6252H68.0226V43.8448ZM69.2323 43.8448H70.0524V42.6252H69.2323V43.8448ZM69.2323 47.3567H70.0524V46.1372H69.2323V47.3567ZM38.1132 43.8684H38.9681V42.6936H38.1132V43.8684ZM42.0074 39.8615H42.9641V38.659H42.0074V39.8615ZM42.0074 37.9288H42.9641V36.7261H42.0074V37.9288ZM42.0074 36.1868H42.9641V34.9841H42.0074V36.1868ZM43.4574 43.5366H44.4141V42.3339H43.4574V43.5366ZM29.9373 49.1733H30.7922V47.9819H29.9373V49.1733ZM42.0074 43.5366H42.9641V42.3339H42.0074V43.5366ZM42.0074 41.6035H42.9641V40.401H42.0074V41.6035ZM29.9373 47.4226H30.7922V46.2311H29.9373V47.4226ZM44.9071 41.6035H45.864V40.401H44.9071V41.6035ZM43.4574 41.6035H44.4141V40.401H43.4574V41.6035ZM44.9071 39.8615H45.864V38.659H44.9071V39.8615ZM44.9071 43.5366H45.864V42.3339H44.9071V43.5366ZM43.4574 39.8615H44.4141V38.659H43.4574V39.8615ZM43.4574 36.1868H44.4141V34.9841H43.4574V36.1868ZM43.4574 37.9288H44.4141V36.7261H43.4574V37.9288ZM40.0546 36.1868H41.0114V34.9841H40.0546V36.1868ZM29.0022 38.659C28.7661 38.659 28.5747 38.8502 28.5747 39.0863V40.2036H29.4295V39.0863C29.4295 38.8502 29.2383 38.659 29.0022 38.659ZM40.0546 43.5366H41.0114V42.3339H40.0546V43.5366ZM40.0546 39.8615H41.0114V38.659H40.0546V39.8615ZM27.212 47.4226H28.0669V46.2311H27.212V47.4226ZM27.212 43.8684H28.0669V42.6936H27.212V43.8684ZM40.0546 37.9288H41.0114V36.7261H40.0546V37.9288ZM27.212 45.6718H28.0669V44.4281H27.212V45.6718ZM40.0546 41.6035H41.0114V40.401H40.0546V41.6035ZM32.6626 45.6718H33.5175V44.4281H32.6626V45.6718ZM28.5747 45.6718H29.4295V44.4281H28.5747V45.6718ZM28.5747 42.036H29.4295V40.8612H28.5747V42.036ZM44.9071 37.9288H45.864V36.7261H44.9071V37.9288ZM28.5747 47.4226H29.4295V46.2311H28.5747V47.4226ZM27.212 42.036H28.0669V40.8612H27.212V42.036ZM28.5747 49.1733H29.4295V47.9819H28.5747V49.1733ZM27.6395 38.659C27.4035 38.659 27.212 38.8502 27.212 39.0863V40.2036H28.0669V39.0863C28.0669 38.8502 27.8756 38.659 27.6395 38.659ZM34.0253 47.4226H34.8801V46.2311H34.0253V47.4226ZM34.4528 38.659C34.2167 38.659 34.0253 38.8502 34.0253 39.0863V40.2036H34.8801V39.0863C34.8801 38.8502 34.6889 38.659 34.4528 38.659ZM35.3879 45.6718H36.2428V44.4281H35.3879V45.6718ZM35.3879 49.1733H36.2428V47.9819H35.3879V49.1733ZM35.3879 47.4226H36.2428V46.2311H35.3879V47.4226ZM35.8155 38.659C35.5794 38.659 35.3879 38.8502 35.3879 39.0863V40.2036H36.2428V39.0863C36.2428 38.8502 36.0515 38.659 35.8155 38.659ZM35.3879 43.8684H36.2428V42.6936H35.3879V43.8684ZM35.3879 42.036H36.2428V40.8612H35.3879V42.036ZM32.6626 43.8684H33.5175V42.6936H32.6626V43.8684ZM32.6626 42.036H33.5175V40.8612H32.6626V42.036ZM32.6626 47.4226H33.5175V46.2311H32.6626V47.4226ZM33.0902 38.659C32.8541 38.659 32.6626 38.8502 32.6626 39.0863V40.2036H33.5175V39.0863C33.5175 38.8502 33.3262 38.659 33.0902 38.659ZM34.0253 45.6718H34.8801V44.4281H34.0253V45.6718ZM34.0253 43.8684H34.8801V42.6936H34.0253V43.8684ZM27.212 49.1733H28.0669V47.9819H27.212V49.1733ZM34.0253 42.036H34.8801V40.8612H34.0253V42.036ZM34.0253 49.1733H34.8801V47.9819H34.0253V49.1733ZM30.3649 38.659C30.1288 38.659 29.9373 38.8502 29.9373 39.0863V40.2036H30.7922V39.0863C30.7922 38.8502 30.6009 38.659 30.3649 38.659ZM46.9276 37.9288H47.8843V36.7261H46.9276V37.9288ZM29.9373 42.036H30.7922V40.8612H29.9373V42.036ZM46.9276 41.6035H47.8843V40.401H46.9276V41.6035ZM46.9276 39.8615H47.8843V38.659H46.9276V39.8615ZM29.9373 45.6718H30.7922V44.4281H29.9373V45.6718ZM46.9276 43.5366H47.8843V42.3339H46.9276V43.5366ZM29.9373 43.8684H30.7922V42.6936H29.9373V43.8684ZM31.3 43.8684H32.1548V42.6936H31.3V43.8684ZM31.3 42.036H32.1548V40.8612H31.3V42.036ZM32.6626 49.1733H33.5175V47.9819H32.6626V49.1733ZM31.7275 38.659C31.4914 38.659 31.3 38.8502 31.3 39.0863V40.2036H32.1548V39.0863C32.1548 38.8502 31.9636 38.659 31.7275 38.659ZM31.3 47.4226H32.1548V46.2311H31.3V47.4226ZM44.9071 36.1868H45.864V34.9841H44.9071V36.1868ZM46.9276 36.1868H47.8843V34.9841H46.9276V36.1868ZM31.3 45.6718H32.1548V44.4281H31.3V45.6718ZM31.3 49.1733H32.1548V47.9819H31.3V49.1733ZM28.5747 43.8684H29.4295V42.6936H28.5747V43.8684ZM41.5784 28.2939C41.4736 28.4049 41.3545 28.4782 41.2237 28.5099L41.1959 28.4148H41.1148V29.2552H41.4357L41.4139 29.1759C41.4696 29.1581 41.5249 29.1303 41.5784 29.0788V28.2939ZM40.5973 44.7936H47.344V45.6904H40.5973V44.7936ZM40.5272 45.831H47.4142C47.453 45.831 47.4845 45.7997 47.4845 45.7608V44.7234C47.4845 44.6846 47.453 44.653 47.4142 44.653H40.5272C40.4883 44.653 40.4568 44.6846 40.4568 44.7234V45.7608C40.4568 45.7997 40.4883 45.831 40.5272 45.831ZM40.9079 29.2552V28.4148H40.8267L40.7989 28.5099C40.6681 28.4782 40.5492 28.4049 40.4441 28.2939V29.0788C40.4976 29.1303 40.5531 29.1581 40.6086 29.1759L40.5868 29.2552H40.9079ZM53.5472 38.659C53.3111 38.659 53.1197 38.8502 53.1197 39.0863V40.2036H53.9745V39.0863C53.9745 38.8502 53.7832 38.659 53.5472 38.659ZM53.1197 42.036H53.9745V40.8612H53.1197V42.036ZM54.4823 47.4226H55.3372V46.2311H54.4823V47.4226ZM51.757 47.4226H52.6119V46.2311H51.757V47.4226ZM50.8219 38.659C50.5858 38.659 50.3944 38.8502 50.3944 39.0863V40.2036H51.2492V39.0863C51.2492 38.8502 51.0579 38.659 50.8219 38.659ZM54.4823 49.1733H55.3372V47.9819H54.4823V49.1733ZM51.757 49.1733H52.6119V47.9819H51.757V49.1733ZM49.0317 43.8684H49.8866V42.6936H49.0317V43.8684ZM53.1197 47.4226H53.9745V46.2311H53.1197V47.4226ZM53.1197 49.1733H53.9745V47.9819H53.1197V49.1733ZM49.0317 42.036H49.8866V40.8612H49.0317V42.036ZM49.4592 38.659C49.2232 38.659 49.0317 38.8502 49.0317 39.0863V40.2036H49.8866V39.0863C49.8866 38.8502 49.6953 38.659 49.4592 38.659ZM53.1197 43.8684H53.9745V42.6936H53.1197V43.8684ZM47.4752 28.2939C47.3702 28.4049 47.2512 28.4782 47.1204 28.5099L47.0927 28.4148H47.0114V29.2552H47.3325L47.3107 29.1759C47.3662 29.1581 47.4217 29.1303 47.4752 29.0788V28.2939ZM46.8047 29.2552V28.4148H46.7232L46.6957 28.5099C46.5649 28.4782 46.4457 28.4049 46.3409 28.2939V29.0788C46.3944 29.1303 46.4499 29.1581 46.5054 29.1759L46.4834 29.2552H46.8047ZM44.2142 14.8265L44.0419 14.2965L43.8697 14.8265H43.3123L43.7632 15.1541L43.591 15.6843L44.0419 15.3567L44.4928 15.6843L44.3206 15.1541L44.7715 14.8265H44.2142ZM53.1197 45.6718H53.9745V44.4281H53.1197V45.6718ZM50.3944 42.036H51.2492V40.8612H50.3944V42.036ZM51.757 42.036H52.6119V40.8612H51.757V42.036ZM25.8494 49.1733H26.7042V47.9819H25.8494V49.1733ZM37.6054 39.0863C37.6054 38.8502 37.4142 38.659 37.1781 38.659C36.9421 38.659 36.7506 38.8502 36.7506 39.0863V40.2036H37.6054V39.0863ZM36.7506 43.8684H37.6054V42.6936H36.7506V43.8684ZM25.8494 47.4226H26.7042V46.2311H25.8494V47.4226ZM36.7506 42.036H37.6054V40.8612H36.7506V42.036ZM25.8494 45.6718H26.7042V44.4281H25.8494V45.6718ZM55.845 47.4226H56.6998V46.2311H55.845V47.4226ZM54.4823 45.6718H55.3372V44.4281H54.4823V45.6718ZM55.845 49.1733H56.6998V47.9819H55.845V49.1733ZM25.8494 43.8684H26.7042V42.6936H25.8494V43.8684ZM25.8494 42.036H26.7042V40.8612H25.8494V42.036ZM54.4823 42.036H55.3372V40.8612H54.4823V42.036ZM54.9098 38.659C54.6738 38.659 54.4823 38.8502 54.4823 39.0863V40.2036H55.3372V39.0863C55.3372 38.8502 55.1459 38.659 54.9098 38.659ZM52.1845 38.659C51.9485 38.659 51.757 38.8502 51.757 39.0863V40.2036H52.6119V39.0863C52.6119 38.8502 52.4206 38.659 52.1845 38.659ZM51.757 45.6718H52.6119V44.4281H51.757V45.6718ZM54.4823 43.8684H55.3372V42.6936H54.4823V43.8684ZM38.1132 42.036H38.9681V40.8612H38.1132V42.036ZM50.3944 43.8684H51.2492V42.6936H50.3944V43.8684ZM38.9681 39.0863C38.9681 38.8502 38.7768 38.659 38.5408 38.659C38.3047 38.659 38.1132 38.8502 38.1132 39.0863V40.2036H38.9681V39.0863ZM51.757 43.8684H52.6119V42.6936H51.757V43.8684ZM26.2769 38.659C26.0408 38.659 25.8494 38.8502 25.8494 39.0863V40.2036H26.7042V39.0863C26.7042 38.8502 26.513 38.659 26.2769 38.659ZM55.845 45.6718H56.6998V44.4281H55.845V45.6718ZM37.6649 57.111V53.8866C37.4746 53.9777 37.278 54.0071 37.2104 54.1163C37.0156 54.432 36.7448 54.5353 36.4008 54.5325C36.2979 54.5317 36.195 54.5506 36.0696 54.5626C36.0834 54.6919 36.0941 54.7926 36.1066 54.9087C36.4461 54.8939 36.7611 54.88 37.1208 54.8643V57.111H37.6649ZM46.506 55.4062C46.174 55.6199 45.7823 55.7394 45.419 55.9057C44.9073 56.14 44.5356 56.4846 44.4901 57.1064H47.4923C47.477 56.9631 47.4641 56.844 47.4544 56.754H45.1511C45.1295 56.7286 45.1081 56.7033 45.0867 56.6777C45.2744 56.5346 45.446 56.3582 45.6537 56.2549C46.0836 56.0415 46.544 55.8888 46.9708 55.6698C47.3242 55.4885 47.568 55.1993 47.4677 54.7571C47.3791 54.3658 47.1173 54.1173 46.7309 54.0519C46.3781 53.992 46.0105 53.9468 45.6571 53.9789C44.9996 54.0388 44.6639 54.412 44.59 55.0703H45.1675C45.2841 54.4433 45.5728 54.277 46.2983 54.3615C46.6007 54.3968 46.8636 54.5446 46.8679 54.8221C46.8711 55.0199 46.686 55.2905 46.506 55.4062ZM49.723 56.3469C49.5163 55.8421 49.5217 55.3305 49.7274 54.8267C49.8812 54.4503 50.1771 54.2923 50.5945 54.3434C51.0225 54.3962 51.2805 54.6451 51.3509 55.0954C51.3776 55.2671 51.3733 55.4437 51.3818 55.5931C51.3778 56.3451 51.2078 56.6553 50.7295 56.8087C50.2834 56.952 49.9014 56.7827 49.723 56.3469ZM51.9976 55.5422C51.9891 54.6933 51.4746 53.8806 50.3583 53.9544C49.5003 54.0109 48.9774 54.5819 48.9847 55.5838C48.9925 56.6426 49.524 57.2077 50.5022 57.1966C51.4454 57.1857 52.0077 56.5645 51.9976 55.5422ZM41.5471 55.7152C41.0031 55.7049 40.7464 55.4829 40.7537 55.0292C40.761 54.586 41.0815 54.3214 41.603 54.3278C42.1057 54.3341 42.4501 54.6082 42.4497 55.0019C42.4493 55.4252 42.07 55.7251 41.5471 55.7152ZM40.849 56.5691C40.6657 56.2751 40.4608 56.333 40.1914 56.3812C40.211 56.4559 40.2194 56.5056 40.237 56.552C40.54 57.3484 42.0012 57.3589 42.5655 56.8489C43.155 56.316 43.2959 55.1055 42.8351 54.4713C42.4365 53.9227 41.3444 53.769 40.6572 54.166C40.2901 54.3779 40.165 54.7159 40.1791 55.117C40.1928 55.5069 40.3954 55.7759 40.7527 55.9144C41.358 56.1489 41.9515 56.1808 42.4993 55.7404C42.5274 55.7677 42.5556 55.7949 42.5837 55.8222C42.4383 56.0841 42.3282 56.3754 42.1396 56.6012C41.7988 57.0083 41.1138 56.9938 40.849 56.5691ZM8.01378 39.1584C8.16422 39.2976 8.54378 39.1678 8.8177 39.1993C9.50844 39.2789 10.1181 39.1442 10.6037 38.613C10.6398 38.5735 10.6937 38.5486 10.724 38.5061C10.8673 38.3066 11.0265 38.3438 11.214 38.4445C11.6486 38.678 12.0893 38.9002 12.5305 39.1212C12.6361 39.1739 12.753 39.204 12.9092 39.2605C12.6789 38.4816 12.6428 37.7839 12.9512 37.0363H9.96054C9.82259 33.1275 10.4063 29.3527 11.6088 25.5823C12.6113 25.9487 13.5756 26.3011 14.5835 26.6696C14.6267 26.5741 14.6818 26.4756 14.7174 26.3707C14.9923 25.5654 15.1931 24.726 15.5515 23.9601C16.1213 22.7426 16.7998 21.5762 17.4239 20.3836C18.1341 19.0272 18.9866 17.7788 20.1064 16.7215C19.7072 16.3967 19.2815 16.0552 18.8613 15.7071C18.4332 15.3525 18.0104 14.9914 17.5876 14.6352C20.1133 11.5934 22.9794 9.08474 26.3278 7.04225C26.484 7.35878 26.6275 7.66501 26.7841 7.96449C27.0687 8.50856 27.3529 9.05323 27.654 9.58798C27.7775 9.80719 27.9388 9.86943 28.1745 9.67162C28.3761 9.50236 28.622 9.3767 28.8648 9.26828C29.5072 8.98148 30.1597 8.71767 30.8057 8.43859C31.8415 7.99105 32.8668 7.51754 33.9129 7.09556C34.6653 6.79211 35.4349 6.52216 36.2146 6.29958C36.7664 6.14201 37.3496 6.09682 37.915 5.98344C38.075 5.95153 38.3128 5.97433 38.2728 5.67206C38.1535 4.77202 38.0367 3.87138 37.9444 2.96816C37.9333 2.85796 38.0655 2.63875 38.1521 2.62725C39.3354 2.46988 40.5196 2.27544 41.7095 2.22014C43.1867 2.15137 44.6714 2.15573 46.149 2.21876C47.3369 2.2695 48.519 2.45462 49.8101 2.59138C49.5385 3.72114 49.2888 4.76072 49.0329 5.82508C52.7611 6.26489 56.1199 7.72546 59.4358 9.47639C59.6527 8.94005 59.8237 8.45148 60.0457 7.98729C60.2728 7.51239 60.5499 7.06128 60.8054 6.59926C64.1519 8.5486 67.0702 10.9124 69.6001 13.8159C69.1078 14.2769 68.6374 14.7304 68.152 15.167C67.825 15.4612 67.4998 15.7688 67.1299 16.0007C66.8374 16.1844 66.9153 16.3093 67.0863 16.4881C67.1674 16.5731 67.2566 16.652 67.3275 16.7449C67.8143 17.3812 68.3197 18.0047 68.7764 18.6622C69.6233 19.8813 70.4381 21.1137 71.0405 22.4895C71.5132 23.5689 72.2267 24.5399 72.4287 25.743C72.4529 25.8861 72.7851 26.1166 72.9101 26.0811C73.7267 25.8474 74.5229 25.5442 75.3316 25.2814C75.5801 25.2005 75.8465 25.1745 76.0951 25.1254C77.2696 28.1654 78.3046 34.8077 77.8991 36.8014C76.9846 36.8614 76.0503 36.9241 75.1157 36.9831C74.9217 36.9954 74.7552 36.9865 74.732 37.2705C74.6845 37.856 74.5905 38.4376 74.5237 39.0217C74.5146 39.101 74.5372 39.1959 74.5786 39.2627C74.5927 39.2851 74.7172 39.2573 74.7802 39.2286C75.3252 38.9802 75.8786 38.7468 76.4071 38.4663C76.703 38.3093 76.9376 38.3496 77.1921 38.5186C77.7194 38.8689 78.2846 39.075 78.9341 38.9983C79.0889 38.9799 79.2586 39.0655 79.4086 39.0367C79.529 39.0137 79.7032 38.9061 79.7254 38.8074C79.7898 38.5214 79.808 38.2211 79.8118 37.926C79.8383 35.8528 79.8526 33.7835 79.5954 31.7159C79.2765 29.1545 78.71 26.6573 77.8734 24.2196C77.629 23.5067 77.3465 22.807 77.0619 22.0489C76.0509 22.5043 75.091 22.9176 74.1511 23.3719C73.8692 23.5082 73.7295 23.4522 73.6136 23.205C73.2814 22.4964 72.9841 21.7692 72.6152 21.08C72.1583 20.2264 71.6585 19.3943 71.1487 18.5706C70.7323 17.8977 70.2742 17.2505 69.8637 16.6357C70.869 15.9093 71.8115 15.2281 72.8267 14.4943C71.772 13.2995 70.8236 12.1632 69.81 11.0888C67.0651 8.17816 63.8823 5.8443 60.3329 4.00338C60.1089 3.88704 59.9745 3.88327 59.8477 4.11299C59.486 4.76845 59.0767 5.40112 58.7661 6.07957C58.5966 6.44962 58.3764 6.50194 58.0758 6.39075C57.6022 6.21554 57.1466 5.99256 56.6802 5.79733C55.9811 5.50458 55.2924 5.17913 54.5755 4.93911C53.6782 4.63843 52.7544 4.41763 51.8488 4.14015C51.7483 4.10923 51.6121 3.91657 51.63 3.8256C51.7108 3.40937 51.8303 2.99948 51.9556 2.59336C52.1138 2.08081 52.291 1.5742 52.4628 1.05629C46.5662 -0.374545 40.7595 -0.354923 34.9325 1.13458C35.1346 1.94959 35.332 2.73389 35.5235 3.51957C35.6848 4.18058 35.6182 4.26937 34.9761 4.44974C34.0792 4.70166 33.1698 4.92563 32.3003 5.25385C31.3093 5.62786 30.3462 6.08215 29.3905 6.54178C28.696 6.87576 28.6468 6.88547 28.3103 6.1866C28.2708 6.10435 28.2562 6.0104 28.2237 5.92438C27.9765 5.26912 27.7277 4.61425 27.4703 3.9352C22.0997 6.69281 17.7575 10.5221 14.2659 15.3827C15.1129 15.8352 15.9015 16.2575 16.6914 16.6775C16.8747 16.7751 17.0816 16.8524 16.9058 17.1225C16.6067 17.5823 16.2932 18.0342 16.0163 18.5074C15.4288 19.5107 14.8401 20.5146 14.2927 21.5399C13.9355 22.2092 13.6561 22.9198 13.3239 23.6032C13.2838 23.6852 13.1023 23.7826 13.0359 23.7548C12.3225 23.4557 11.6152 23.1418 10.9147 22.8131C10.4848 22.6114 10.3653 22.6332 10.1966 23.0833C9.47415 25.012 8.8506 26.974 8.50553 29.006C8.24945 30.5124 8.01636 32.0312 7.92182 33.5538C7.82272 35.1492 7.89704 36.7556 7.90556 38.3573C7.90695 38.6344 7.86057 39.0165 8.01378 39.1584ZM67.5002 62.0411C68.6113 65.0912 69.7965 68.1143 70.9533 71.1474C70.9616 71.1696 70.9511 71.1985 70.9473 71.2566H49.6459C49.9557 72.1303 50.2495 72.9588 50.5565 73.8251H37.6445C38.1021 72.9841 38.5467 72.1669 39.0561 71.2308H17.2057C17.6968 69.8384 18.1466 68.5592 18.5997 67.281C19.273 65.3822 19.953 63.486 20.619 61.5848C20.728 61.2732 20.8929 61.0465 21.2029 60.9202C21.3375 60.8653 21.4718 60.7874 21.5783 60.6897C22.0855 60.2245 22.6831 60.0906 23.3778 60.192C22.2381 63.262 21.097 66.3358 19.9558 69.4097H41.5977C41.142 70.2838 40.6885 71.1533 40.2188 72.054H48.2631C47.8088 71.1559 47.3656 70.2794 46.9036 69.3659H68.1556C67.0264 66.2961 65.9082 63.2561 64.7858 60.2045C65.286 60.1068 65.7048 60.2719 66.1419 60.4606C66.8663 60.7734 67.23 61.2998 67.5002 62.0411ZM69.1948 63.0585C70.433 66.2755 71.7732 69.4531 73.0735 72.6464C73.0869 72.6797 73.0802 72.7213 73.0804 72.7261H51.5271C52.0097 73.7218 52.4838 74.7006 52.9936 75.7528H34.7382C35.2868 74.7103 35.8073 73.721 36.3526 72.685H14.7694C14.9698 72.1608 15.1503 71.6847 15.3337 71.2096C16.4694 68.2665 17.6019 65.3224 18.7505 62.3842C18.8248 62.1939 18.9957 62.007 19.1711 61.8976C19.5659 61.6512 19.9916 61.4544 20.441 61.2185C19.2399 64.6257 18.0518 67.9961 16.8317 71.4574H38.6163C38.1027 72.4048 37.6429 73.2527 37.1603 74.1428H50.9616C50.6578 73.2796 50.3587 72.4298 50.0406 71.5263H71.3838C70.0617 68.0477 68.7649 64.6356 67.4472 61.1686C68.2095 61.6853 68.8487 62.159 69.1948 63.0585ZM24.3064 60.0997C30.1948 60.1118 36.0834 60.1096 41.9719 60.1026C42.2339 60.1025 42.4228 60.1677 42.6014 60.3649C42.9268 60.7236 43.2887 61.0493 43.6199 61.4033C43.8195 61.6169 43.9834 61.6284 44.1939 61.4179C44.5747 61.037 44.9614 60.6608 45.3679 60.3082C45.4942 60.1988 45.6922 60.1163 45.8577 60.1159C51.9213 60.1064 57.985 60.1098 64.0486 60.1025C64.3525 60.1021 64.5071 60.2091 64.6091 60.4897C65.6442 63.3356 66.6883 66.1782 67.7642 69.115H46.4761C46.941 70.0469 47.371 70.9095 47.8195 71.8086H40.6598C41.1265 70.9085 41.5804 70.0333 42.048 69.132H20.3619C20.4545 68.8643 20.545 68.581 20.6491 68.3031C21.6032 65.7517 22.5832 63.2095 23.4949 60.6432C23.6648 60.1651 23.8751 60.0989 24.3064 60.0997ZM68.9262 60.6537C69.2586 60.9712 69.5956 61.2843 69.9323 61.6013C72.6582 58.5289 75.1413 55.3624 76.894 51.6227C76.1765 51.6227 75.482 51.6152 74.7881 51.633C74.7063 51.6352 74.6012 51.7632 74.5519 51.8568C73.6292 53.6045 72.5878 55.2772 71.3746 56.8378C70.91 57.4356 70.3997 57.9975 69.9008 58.587C69.2051 57.9983 68.5917 57.4792 67.9861 56.9671C67.187 57.6645 66.3603 58.3141 65.6226 59.0524C65.0145 59.6613 64.3487 59.8959 63.5026 59.8708C62.0888 59.8287 60.6728 59.8648 59.2578 59.8666C59.1583 59.8668 59.0588 59.8539 58.8569 59.8402C60.52 58.7372 61.954 57.5173 63.2802 56.1661C64.6084 54.8132 65.755 53.3215 66.8207 51.6998C66.1478 51.6998 65.5314 51.6907 64.9158 51.7085C64.8103 51.7117 64.6777 51.8078 64.6096 51.8996C63.5392 53.3387 62.3762 54.6899 61.0419 55.897C59.3688 57.4108 57.545 58.698 55.5379 59.7249C55.3788 59.8063 55.183 59.8527 55.004 59.8531C51.9045 59.8604 48.8048 59.8551 45.7052 59.8666C45.5421 59.8672 45.3473 59.9576 45.2222 60.0684C44.7808 60.4594 44.3634 60.8774 43.9327 61.2893C43.5086 60.8747 43.1078 60.4596 42.6781 60.0771C42.5457 59.959 42.3352 59.8682 42.16 59.8674C38.8718 59.8553 35.5836 59.8608 32.2952 59.8525C32.1051 59.8521 31.8974 59.798 31.7275 59.711C28.098 57.8487 25.1128 55.236 22.7106 51.9466C22.643 51.854 22.5493 51.7129 22.4648 51.7107C21.7226 51.6923 20.9795 51.7 20.1912 51.7C22.3041 54.9638 24.8974 57.656 28.1493 59.8444C27.9335 59.8551 27.8201 59.8654 27.7069 59.8654C26.3593 59.8646 25.0114 59.8468 23.6642 59.868C23.157 59.8761 22.7532 59.7148 22.3875 59.3822C21.4948 58.5701 20.5938 57.767 19.6882 56.9534C19.066 57.4814 18.4526 58.0019 17.8271 58.5329C17.6994 58.4453 17.5736 58.37 17.4612 58.278C17.3789 58.2104 17.3111 58.1238 17.2426 58.0411C15.651 56.1255 14.2685 54.0707 13.115 51.8621C13.0654 51.7672 12.9608 51.6358 12.8789 51.6338C12.1848 51.6154 11.4899 51.6233 10.7769 51.6233C11.8375 54.1466 16.2361 60.419 17.7539 61.5743C17.8675 61.4715 17.9854 61.3644 18.1036 61.258C18.4998 60.9004 18.8873 60.5322 19.2995 60.1944C19.3935 60.1175 19.6226 60.0791 19.7064 60.1391C19.9982 60.3478 20.2539 60.6077 20.5438 60.8667C19.972 61.1605 19.4398 61.4615 18.8843 61.7099C18.4881 61.8873 18.0532 61.9771 17.6497 62.1402C17.4897 62.2048 17.2953 62.334 17.2382 62.4811C16.1407 65.3077 15.0621 68.142 13.9777 70.9737C13.5916 71.9816 13.2006 72.9875 12.7966 74.0334H34.0853C34.0239 74.1565 33.9864 74.2382 33.9436 74.3167C33.44 75.2421 32.9358 76.1673 32.4315 77.0925H55.3992C54.83 76.0848 54.2607 75.077 53.7054 74.0939H75.0432C75.0315 74.0532 75.0168 73.9781 74.9891 73.9083C74.3624 72.33 73.738 70.7506 73.1052 69.1748C72.2138 66.9552 71.3186 64.7367 70.4137 62.5225C70.363 62.3983 70.2114 62.2276 70.1057 62.227C68.8886 62.2193 68.2357 61.2566 67.3323 60.6887C68.152 59.912 68.1513 59.913 68.9262 60.6537Z" fill="#2B5F76"/>
</svg>